# xmcd
#
# Track frame offsets:
#	150
#	24698
#	40102
#	66431
#	101826
#	120258
#	150614
#	177163
#
# Disc length: 2665 seconds
#
# Revision: 0
# Processed by: cddbd v1.5.2PL0 Copyright (c) Steve Scherf et al.
# Submitted via: audiograbber 1.83.01
#
DISCID=620a6708
DTITLE=Stefan Diestelmann - Live
DYEAR=1985
DGENRE=Blues
TTITLE0=Flip, Flop And Fly (Live)
TTITLE1=Giesing Boogie (Live)
TTITLE2=Everyday I Have The Blues (Live)
TTITLE3=Blues And Trouble (Live)
TTITLE4=Der Alte und die Kneipe (Live)
TTITLE5=Vorstadt-Blues (Live)
TTITLE6=Caldonia (Live)
TTITLE7=Trouble In Mind (Live)
EXTD=
EXTT0=
EXTT1=
EXTT2=
EXTT3=
EXTT4=
EXTT5=
EXTT6=
EXTT7=
PLAYORDER=
